<svg width="14" height="9" viewBox="0 0 14 9" fill="none" xmlns="http://www.w3.org/2000/svg">
<path d="M13.212 7.79868C13.1908 7.83661 13.1662 7.87312 13.1492 7.91303C13.1257 7.96822 13.1081 8.02567 13.0796 8.10605C11.8354 6.83666 10.603 5.57944 9.39648 4.34854C10.5903 3.13065 11.8206 1.87541 13.0739 0.59668C13.1115 0.70593 13.1348 0.779801 13.1631 0.85169C13.173 0.87688 13.1956 0.897258 13.2123 0.919901V7.79868H13.212Z" fill="#004669"/>
<path d="M0.787109 0.919875C0.819658 0.826192 0.852489 0.732508 0.892397 0.618164C2.13434 1.88558 3.3658 3.14195 4.57151 4.37228C3.38363 5.58422 2.15132 6.84116 0.900039 8.11763C0.854754 7.98942 0.82079 7.89404 0.787109 7.79865C0.787109 5.50582 0.787109 3.21299 0.787109 0.919875Z" fill="#004669"/>
<path d="M1.39062 0.0821497C1.56978 0.0507333 1.7147 0.00346713 1.85989 0.0031841C5.2772 -0.00106137 8.6948 -0.00106137 12.1121 0.0031841C12.2596 0.0031841 12.4067 0.0529975 12.5817 0.0844139C12.5262 0.144133 12.5001 0.173852 12.4718 0.201872C10.9217 1.74467 9.37068 3.28634 7.82193 4.83027C7.48796 5.16312 7.09879 5.30294 6.64481 5.14727C6.47952 5.09066 6.31564 4.98481 6.19083 4.86141C4.61236 3.30162 3.04126 1.73448 1.46818 0.16904C1.45148 0.152341 1.43676 0.133944 1.39062 0.0821497Z" fill="#004669"/>
<path d="M1.44336 8.65227C2.68841 7.38203 3.91931 6.12622 5.16125 4.85938C5.33701 5.03599 5.49608 5.19505 5.65429 5.35468C5.85241 5.55478 6.07431 5.72064 6.34262 5.81376C7.08558 6.0716 7.73768 5.91508 8.30063 5.37251C8.46847 5.2109 8.62951 5.0425 8.81009 4.86051C10.0515 6.12707 11.2821 7.38288 12.5138 8.63953C12.4284 8.65935 12.303 8.69048 12.1765 8.71595C12.1337 8.72444 12.0879 8.7185 12.0434 8.7185C8.6731 8.7185 5.30277 8.71963 1.93244 8.71567C1.76318 8.71567 1.59393 8.67265 1.44336 8.65227Z" fill="#004669"/>
</svg>
