<svg width="18" height="12" viewBox="0 0 18 12" fill="none" xmlns="http://www.w3.org/2000/svg">
<path d="M17.0983 10.7312C17.0691 10.7834 17.0352 10.8337 17.0119 10.8886C16.9795 10.9645 16.9554 11.0436 16.9161 11.1542C15.2039 9.40735 13.508 7.67725 11.8477 5.98336C13.4905 4.3074 15.1836 2.58002 16.9083 0.820312C16.9601 0.970655 16.992 1.07231 17.031 1.17124C17.0446 1.20591 17.0758 1.23395 17.0987 1.26511V10.7312H17.0983Z" fill="white"/>
<path d="M0 1.26578C0.0447911 1.13686 0.0899717 1.00794 0.14489 0.850586C1.85396 2.59471 3.54862 4.32365 5.20784 6.01675C3.57316 7.68454 1.87733 9.41426 0.155406 11.1708C0.0930876 10.9944 0.0463491 10.8631 0 10.7319C0 7.57665 0 4.42141 0 1.26578Z" fill="white"/>
<path d="M0.832031 0.113049C1.07858 0.0698157 1.27799 0.00477123 1.4778 0.00438174C6.18048 -0.00146058 10.8835 -0.00146058 15.5862 0.00438174C15.7891 0.00438174 15.9917 0.0729316 16.2324 0.116165C16.156 0.198347 16.1202 0.239243 16.0813 0.277802C13.948 2.4009 11.8136 4.52244 9.68237 6.6471C9.22277 7.10514 8.68722 7.29754 8.06248 7.08332C7.83502 7.00543 7.60951 6.85976 7.43775 6.68994C5.26557 4.54347 3.10352 2.38688 0.938751 0.232622C0.915771 0.209642 0.895518 0.184325 0.832031 0.113049Z" fill="white"/>
<path d="M0.904297 11.9061C2.61765 10.158 4.31154 8.42987 6.02061 6.68652C6.26248 6.92956 6.48137 7.14846 6.6991 7.36813C6.97174 7.6435 7.2771 7.87174 7.64633 7.99988C8.66874 8.3547 9.56612 8.13931 10.3408 7.39267C10.5718 7.17027 10.7934 6.93852 11.0419 6.68808C12.7502 8.43104 14.4437 10.1592 16.1387 11.8885C16.0211 11.9158 15.8486 11.9586 15.6745 11.9937C15.6156 12.0054 15.5525 11.9972 15.4914 11.9972C10.8534 11.9972 6.21535 11.9987 1.57733 11.9933C1.34442 11.9933 1.1115 11.9341 0.904297 11.9061Z" fill="white"/>
</svg>
