<svg width="12" height="18" viewBox="0 0 12 18" fill="none" xmlns="http://www.w3.org/2000/svg">
<path d="M5.88095 17.7787C5.67091 17.5064 5.4626 17.2329 5.25083 16.9622C3.80478 15.114 2.47587 13.1815 1.41471 11.0574C0.846329 9.91953 0.351236 8.74816 0.122731 7.4758C-0.267344 5.30269 0.273337 3.40656 1.7315 1.82087C2.55839 0.921271 3.57916 0.339044 4.75054 0.119194C6.91326 -0.285883 8.78228 0.338467 10.2843 2.03899C11.428 3.33327 11.9179 4.89703 11.8146 6.65295C11.7511 7.73085 11.4239 8.74585 11.0171 9.72969C10.2347 11.6218 9.19717 13.3575 8.02521 15.0038C7.38239 15.9063 6.69168 16.7701 6.0229 17.6518C5.99347 17.6905 5.97212 17.7366 5.94673 17.7787H5.88095ZM5.90807 8.43714C7.07195 8.43887 8.02117 7.44752 8.02694 6.22537C8.03271 5.01186 7.08176 4.00667 5.91904 3.99744C4.76843 3.98821 3.80478 4.99571 3.80017 6.21382C3.79497 7.43137 4.74823 8.4354 5.90807 8.43714Z" fill="white"/>
</svg>
