<svg width="9" height="12" viewBox="0 0 9 12" fill="none" xmlns="http://www.w3.org/2000/svg">
<path d="M4.47763 12C4.33557 11.8162 4.19468 11.6316 4.05145 11.4489C3.0734 10.2014 2.17458 8.89704 1.45685 7.46337C1.07242 6.69532 0.737562 5.90469 0.58301 5.04589C0.31918 3.57912 0.684874 2.2993 1.67112 1.22902C2.23039 0.621825 2.9208 0.228842 3.71307 0.0804518C5.17585 -0.192961 6.43997 0.228453 7.45587 1.37624C8.22941 2.24984 8.56076 3.30532 8.4909 4.4905C8.44797 5.21804 8.22668 5.90313 7.95153 6.56719C7.42231 7.84428 6.72059 9.01583 5.92792 10.127C5.49315 10.7361 5.02598 11.3192 4.57364 11.9143C4.55374 11.9404 4.5393 11.9716 4.52213 12H4.47763ZM4.49598 5.69476C5.28318 5.69593 5.92519 5.02681 5.92909 4.20189C5.93299 3.38283 5.28981 2.70436 4.50339 2.69813C3.72517 2.69189 3.0734 3.37192 3.07028 4.19411C3.06676 5.0159 3.71151 5.69359 4.49598 5.69476Z" fill="#004669"/>
</svg>
