<svg width="12" height="11" viewBox="0 0 12 11" fill="none" xmlns="http://www.w3.org/2000/svg">
<path d="M0.500764 1.97925C0.59108 1.43331 1.00095 1.08632 1.31476 0.680788C1.46822 0.482613 1.64541 0.302803 1.86776 0.178466C2.3113 -0.0694432 2.75867 -0.0499319 3.19954 0.180379C3.9037 0.548034 4.43986 1.08976 4.83634 1.77572C5.13446 2.29143 5.08969 2.79987 4.82065 3.30602C4.75215 3.43495 4.67867 3.5635 4.59141 3.68018C4.3595 3.99083 4.45402 4.36155 4.61629 4.57885C5.27453 5.45878 6.04375 6.22775 6.92395 6.88616C7.1463 7.05258 7.5221 7.14211 7.83094 6.90644C8.08888 6.7098 8.37935 6.57054 8.69546 6.49364C9.08313 6.39953 9.43827 6.49862 9.77313 6.69449C10.4111 7.06751 10.9155 7.57097 11.2779 8.21753C11.6472 8.87594 11.5576 9.52517 10.9966 10.0306C10.6996 10.2984 10.3793 10.5409 10.0647 10.7888C9.92506 10.899 9.76012 10.9587 9.58178 10.979C9.56188 10.9813 9.54313 10.9927 9.52361 11H8.96487C8.9488 10.9935 8.93349 10.9824 8.91704 10.9805C8.54735 10.9415 8.1991 10.8244 7.85964 10.6813C6.81488 10.2406 5.87842 9.62464 5.04338 8.8637C4.41958 8.29519 3.82372 7.69569 3.22672 7.09888C2.44946 6.32148 1.77093 5.46528 1.23707 4.50042C0.984492 4.04363 0.756788 3.57459 0.620548 3.06806C0.571563 2.88634 0.5398 2.70002 0.5 2.516C0.5 2.33696 0.5 2.15791 0.5 1.97887L0.500764 1.97925Z" fill="#004669"/>
</svg>
