<svg width="18" height="18" viewBox="0 0 18 18" fill="none" xmlns="http://www.w3.org/2000/svg">
<path d="M0.00118737 3.07781C0.141588 2.22886 0.778749 1.68927 1.26658 1.05865C1.50515 0.750482 1.78059 0.47087 2.12624 0.277521C2.81576 -0.107987 3.51121 -0.077646 4.19656 0.280496C5.29121 0.852214 6.1247 1.69462 6.74103 2.76131C7.20448 3.56326 7.13488 4.35391 6.71665 5.14099C6.61016 5.34148 6.49593 5.54137 6.36029 5.72282C5.99977 6.2059 6.14671 6.78237 6.39895 7.12029C7.42222 8.48861 8.61801 9.68439 9.98632 10.7083C10.332 10.967 10.9162 11.1063 11.3963 10.7398C11.7973 10.434 12.2488 10.2174 12.7402 10.0979C13.3429 9.95151 13.8949 10.1056 14.4155 10.4102C15.4072 10.9902 16.1913 11.7732 16.7547 12.7786C17.3288 13.8024 17.1896 14.812 16.3175 15.5979C15.8558 16.0143 15.3579 16.3915 14.8688 16.777C14.6517 16.9484 14.3953 17.0412 14.118 17.0727C14.0871 17.0763 14.058 17.0941 14.0276 17.1054H13.159C13.134 17.0953 13.1102 17.0781 13.0847 17.0751C12.51 17.0144 11.9686 16.8324 11.4409 16.6099C9.81677 15.9245 8.361 14.9667 7.06289 13.7834C6.09317 12.8993 5.16688 11.9671 4.2388 11.039C3.03052 9.83015 1.97573 8.49872 1.14581 6.99833C0.753165 6.288 0.399189 5.55862 0.187398 4.77095C0.111248 4.48836 0.0618717 4.19864 0 3.91248C0 3.63406 0 3.35564 0 3.07721L0.00118737 3.07781Z" fill="white"/>
</svg>
