<?xml version="1.0" standalone="no"?>
<!DOCTYPE svg PUBLIC "-//W3C//DTD SVG 20010904//EN"
 "http://www.w3.org/TR/2001/REC-SVG-20010904/DTD/svg10.dtd">
<svg version="1.0" xmlns="http://www.w3.org/2000/svg"
 width="976.000000pt" height="976.000000pt" viewBox="0 0 976.000000 976.000000"
 preserveAspectRatio="xMidYMid meet">
<metadata>
Created by potrace 1.14, written by Peter Selinger 2001-2017
</metadata>
<g transform="translate(0.000000,976.000000) scale(0.100000,-0.100000)"
fill="#000000" stroke="none">
<path d="M4748 9684 c-4 -3 -24 -7 -43 -8 l-36 -1 -1 -2353 c0 -2059 -2 -2354
-15 -2367 -11 -11 -41 -15 -121 -15 -59 -1 -1083 -2 -2277 -3 -1711 -2 -2170
-5 -2171 -15 -1 -6 -2 -14 -4 -17 -6 -14 -2 -62 6 -75 8 -13 191 -15 1491 -15
816 0 1483 4 1483 8 0 5 5 5 10 2 6 -4 248 -6 538 -5 547 2 604 1 610 -5 2 -2
14 0 26 5 13 4 29 4 36 0 8 -5 18 -6 23 -3 11 7 197 6 204 -1 3 -3 -389 -401
-872 -885 -483 -484 -882 -885 -886 -893 -5 -7 -9 -8 -9 -3 0 6 -4 3 -9 -4 -6
-8 -102 -108 -215 -221 l-206 -207 80 -78 c44 -43 80 -82 80 -88 0 -6 2 -8 5
-5 3 3 33 -23 67 -59 34 -35 65 -62 69 -61 13 5 75 67 1147 1142 580 581 1057
1056 1060 1056 4 0 6 -24 4 -52 -4 -72 -3 -141 3 -146 2 -2 0 -14 -5 -27 -5
-14 -5 -26 2 -33 7 -7 6 -16 -1 -30 -7 -13 -7 -23 -1 -27 6 -3 6 -15 0 -29 -5
-15 -5 -27 2 -34 7 -7 6 -16 -1 -30 -7 -13 -7 -23 -1 -27 6 -3 6 -15 0 -29 -5
-13 -7 -26 -4 -29 7 -6 6 -458 -1 -465 -2 -3 0 -11 6 -18 7 -9 7 -19 0 -33 -7
-12 -7 -22 -1 -26 6 -3 6 -15 0 -29 -5 -15 -5 -27 3 -35 8 -8 8 -14 -1 -23 -7
-7 -8 -17 -2 -28 5 -9 5 -22 0 -30 -5 -8 -4 -22 2 -33 7 -13 7 -22 -1 -30 -6
-6 -7 -16 -1 -27 5 -9 5 -22 0 -30 -5 -8 -4 -22 1 -33 7 -12 7 -22 0 -30 -6
-8 -6 -18 -1 -27 5 -8 5 -21 0 -31 -5 -9 -7 -19 -4 -21 3 -3 4 -107 4 -232 -1
-124 -1 -233 -1 -241 3 -74 3 -101 1 -110 -1 -5 -1 -14 0 -20 2 -14 3 -88 0
-100 -1 -5 -1 -14 0 -20 2 -14 3 -88 0 -100 -1 -5 -1 -14 0 -20 2 -14 3 -88 0
-100 -1 -5 -2 -12 -1 -15 1 -3 2 -462 2 -1021 l0 -1015 47 6 c26 3 52 7 57 8
6 1 11 60 12 149 1 80 4 154 6 164 3 9 0 22 -5 27 -6 6 -6 17 1 30 7 13 7 23
1 27 -6 3 -6 15 0 29 5 15 5 27 -2 34 -7 7 -6 16 1 30 6 10 8 22 5 25 -3 3 -5
74 -4 158 1 85 1 160 1 167 0 14 -1 135 0 157 0 8 -1 70 -1 138 -1 68 -1 127
1 133 1 5 0 14 -1 19 -2 14 -3 88 0 100 1 6 2 12 1 15 -1 3 -2 711 -2 1573 -1
1431 0 1570 15 1586 15 17 123 18 2366 18 1293 0 2353 3 2357 7 8 7 7 95 -1
103 -2 3 -1 16 4 29 5 13 6 26 0 29 -5 3 -5 18 0 35 5 18 5 32 -1 36 -5 3 -6
11 -2 17 10 16 10 46 1 75 -4 12 -4 22 0 22 10 0 8 42 -2 58 -5 9 -516 12
-2248 12 l-2240 0 1063 1065 c585 586 1065 1069 1067 1074 4 11 -59 81 -72 81
-5 0 -490 -481 -1077 -1070 -587 -588 -1069 -1070 -1072 -1070 -3 0 -5 1010
-5 2245 1 1721 -2 2247 -11 2258 -8 11 -21 13 -46 7 -21 -5 -35 -4 -35 1 0 6
-8 5 -19 -1 -12 -6 -29 -7 -43 -1 -13 5 -33 5 -45 0 -12 -4 -25 -5 -27 0 -3 4
-28 5 -55 1 -28 -3 -52 -2 -53 2 -2 5 -7 6 -10 2z"/>
</g>
</svg>
