<svg width="280" height="157" viewBox="0 0 280 157" fill="none" xmlns="http://www.w3.org/2000/svg">
<path d="M119.589 124.228H114.758V108.92L99.3164 125.412V99.5364H104.135V114.814L119.589 98.3525V124.228Z" fill="white"/>
<path d="M146.151 124.197H141.313V113.088H130.841V124.197H126.01V99.5679H130.841V108.951H141.313V99.5679H146.151V124.197Z" fill="white"/>
<path d="M170.62 123.422C168.61 124.43 166.285 124.934 163.64 124.934C159.808 124.934 156.667 123.662 154.23 121.124C151.861 118.649 150.674 115.563 150.674 111.873C150.674 108.183 151.855 105.28 154.23 102.773C156.724 100.147 159.877 98.8311 163.703 98.8311C166.38 98.8311 168.685 99.3223 170.62 100.311V105.588C168.358 104.045 166.053 103.271 163.703 103.271C161.53 103.271 159.658 104.096 158.1 105.739C156.504 107.414 155.712 109.461 155.712 111.886C155.712 114.31 156.447 116.489 157.924 118.095C159.4 119.707 161.316 120.507 163.678 120.507C165.896 120.507 168.214 119.72 170.626 118.145V123.435L170.62 123.422Z" fill="white"/>
<path d="M191.176 103.806H185.145V124.197H180.307V103.806H174.264V99.5679H191.176V103.806Z" fill="white"/>
<path d="M215.244 124.228H210.413V108.92L194.971 125.412V99.5364H199.789V114.814L215.244 98.3525V124.228Z" fill="white"/>
<path d="M235.178 103.806H229.147V124.197H224.31V103.806H218.26V99.5679H235.178V103.806Z" fill="white"/>
<path d="M260.244 99.5679L249.118 124.197H244.255L247.453 117.119L238.23 99.5679H243.357L249.777 112.012L255.387 99.5679H260.244Z" fill="white"/>
<path d="M279.92 103.806H273.889V124.197H269.051V103.806H263.008V99.5679H279.92V103.806Z" fill="white"/>
<path d="M111.769 136.143H104.079V156.534H99.248V131.905H111.769V136.143Z" fill="white"/>
<path d="M140.284 143.939C140.284 147.674 139.034 150.784 136.527 153.272C134.014 155.759 130.917 157 127.223 157C123.529 157 120.432 155.753 117.925 153.272C115.419 150.784 114.162 147.674 114.162 143.939C114.162 140.205 115.419 137.094 117.925 134.619C120.432 132.138 123.529 130.897 127.223 130.897C130.917 130.897 134.014 132.138 136.527 134.619C139.034 137.1 140.284 140.205 140.284 143.939ZM135.139 143.939C135.139 141.345 134.41 139.26 132.959 137.686C131.501 136.118 129.591 135.331 127.223 135.331C124.855 135.331 122.938 136.118 121.487 137.686C120.036 139.26 119.307 141.345 119.307 143.939C119.307 146.534 120.036 148.58 121.494 150.174C122.951 151.767 124.867 152.567 127.223 152.567C129.579 152.567 131.495 151.773 132.952 150.174C134.41 148.58 135.139 146.502 135.139 143.939Z" fill="white"/>
<path d="M160.889 139.267C160.889 141.414 160.236 143.139 158.942 144.443C157.466 145.91 155.323 146.641 152.503 146.641H149.518V156.534H144.719V131.905H152.371C155.16 131.905 157.296 132.572 158.779 133.907C160.186 135.192 160.896 136.974 160.896 139.26M155.995 139.26C155.995 138.165 155.744 137.365 155.242 136.861C154.645 136.244 153.608 135.942 152.144 135.942H149.518V142.56H152.044C153.596 142.56 154.657 142.296 155.223 141.773C155.738 141.301 155.995 140.463 155.995 139.26Z" fill="white"/>
<path d="M189.907 143.939C189.907 147.674 188.656 150.784 186.15 153.272C183.643 155.759 180.54 157 176.852 157C173.164 157 170.061 155.753 167.548 153.272C165.041 150.784 163.791 147.674 163.791 143.939C163.791 140.205 165.041 137.094 167.548 134.619C170.054 132.138 173.158 130.897 176.852 130.897C180.546 130.897 183.643 132.138 186.15 134.619C188.656 137.1 189.907 140.205 189.907 143.939ZM184.761 143.939C184.761 141.345 184.033 139.26 182.581 137.686C181.124 136.118 179.214 135.331 176.846 135.331C174.477 135.331 172.561 136.118 171.11 137.686C169.659 139.26 168.93 141.345 168.93 143.939C168.93 146.534 169.659 148.58 171.116 150.174C172.574 151.767 174.483 152.567 176.846 152.567C179.208 152.567 181.118 151.773 182.575 150.174C184.033 148.58 184.761 146.502 184.761 143.939Z" fill="white"/>
<path d="M191.805 156.534L191.717 152.239C193.093 152.239 194.016 151.937 194.5 151.339C195.034 150.684 195.304 149.368 195.304 147.397V131.792H212.499V152.246H215.005L214.968 156.509L191.805 156.54V156.534ZM207.63 152.239V135.929H200.041V147.875C200.041 149.418 199.727 150.873 199.105 152.246H207.63V152.239Z" fill="white"/>
<path d="M241.73 156.534H236.698L234.305 151.08H224.617L222.192 156.534H217.16L229.436 130.69L241.73 156.534ZM232.564 147.151L229.442 140.085L226.357 147.151H232.564Z" fill="white"/>
<path d="M117.956 39.8813L116.599 38.5274L77.9821 77.3319L0 77.4011L0.00627884 79.3218L77.1591 79.2526L77.1654 156.584H79.0815L79.069 78.9566L117.956 39.8813Z" fill="white"/>
<path d="M156.241 74.8633H81.5635L81.5697 0H74.6843L74.6781 76.8784L36.3184 115.425L41.1934 120.299L79.5468 81.7652H156.241V74.8633Z" fill="white"/>
</svg>
