<svg width="207" height="43" viewBox="0 0 207 43" fill="none" xmlns="http://www.w3.org/2000/svg">
<path d="M54.7418 32.0762V27.6533H52.6913V32.0762H52.1367V27.1843H55.2964V32.0762H54.7418ZM57.4188 32.0762H56.8506V27.1638H58.3089C59.4009 27.1638 59.9486 27.9614 59.9486 28.7419C59.9486 29.5224 59.4009 30.2858 58.3157 30.2858H57.4188V32.0762ZM59.3769 28.7419C59.3769 28.2455 59.0141 27.6944 58.3055 27.6944H57.4154V29.7552H58.3055C59.0209 29.7552 59.3769 29.2314 59.3769 28.7419ZM65.6724 29.6354C65.6724 31.0184 64.5598 32.172 63.1939 32.172C61.828 32.172 60.7154 31.0184 60.7154 29.6354C60.7154 28.2524 61.828 27.085 63.1939 27.085C64.5598 27.085 65.6724 28.2592 65.6724 29.6354ZM63.1939 31.6414C64.1456 31.6414 65.0972 30.9567 65.0972 29.6354C65.0972 28.314 64.1387 27.6088 63.1871 27.6156C62.2354 27.6225 61.2906 28.3345 61.2906 29.6354C61.2906 30.9362 62.2422 31.6414 63.1939 31.6414ZM70.5094 28.2181C70.1466 27.8416 69.6399 27.6088 69.1127 27.6225C67.8633 27.643 67.2094 28.6358 67.2094 29.6422C67.2094 30.6486 67.8769 31.6277 69.1127 31.6277C69.681 31.6277 70.2527 31.3607 70.619 30.9225L71.0229 31.258C70.5642 31.8091 69.8761 32.1583 69.1127 32.1583C67.4935 32.1583 66.6343 30.9157 66.6343 29.6422C66.6343 28.3687 67.497 27.0919 69.1127 27.0919C69.8077 27.0919 70.4273 27.3726 70.8757 27.8313L70.506 28.2147L70.5094 28.2181ZM74.5386 27.1706V27.7286H73.3302V32.0762H72.7551V27.7286H71.5467V27.1706H74.5421H74.5386ZM76.0278 32.0762H75.4595V27.1638H76.9178C78.0098 27.1638 78.5576 27.9614 78.5576 28.7419C78.5576 29.5224 78.0098 30.2858 76.9247 30.2858H76.0278V32.0762ZM77.9859 28.7419C77.9859 28.2455 77.623 27.6944 76.9144 27.6944H76.0243V29.7552H76.9144C77.6298 29.7552 77.9859 29.2314 77.9859 28.7419ZM80.5704 27.1501H81.2722L83.0352 32.0762H82.4293L81.8679 30.5117H79.9851L79.4373 32.0762H78.8246L80.567 27.1501H80.5704ZM81.683 29.9811L80.9265 27.7594L80.1631 29.9811H81.683ZM86.7837 29.8989H84.5551V32.0796H83.98V27.1672H84.5551V29.382H86.7837V27.1672H87.3588V32.0796H86.7837V29.8989ZM92.4389 28.2215C92.0761 27.845 91.5694 27.6122 91.0422 27.6259C89.7928 27.6464 89.1389 28.6392 89.1389 29.6456C89.1389 30.6521 89.8064 31.6311 91.0422 31.6311C91.6105 31.6311 92.1822 31.3641 92.5485 30.9259L92.9524 31.2614C92.4937 31.8126 91.8056 32.1617 91.0422 32.1617C89.423 32.1617 88.5638 30.9191 88.5638 29.6456C88.5638 28.3722 89.4265 27.0953 91.0422 27.0953C91.7372 27.0953 92.3568 27.376 92.8052 27.8347L92.4355 28.2181L92.4389 28.2215ZM96.4681 27.174V27.732H95.2597V32.0796H94.6846V27.732H93.4762V27.174H96.4716H96.4681ZM99.7134 29.4471C100.268 29.7209 100.504 30.2002 100.497 30.676C100.497 31.6551 99.7408 32.0796 98.837 32.0796H97.3856V27.1603H98.8439C99.621 27.1603 100.275 27.6499 100.275 28.4543C100.275 28.824 100.087 29.1869 99.7134 29.4471ZM98.8439 29.2177C100.045 29.2177 100.052 27.6807 98.8439 27.6807H97.9538V29.2177H98.8439ZM97.9538 29.7552V31.5524H98.8439C100.33 31.5524 100.316 29.7552 98.8439 29.7552H97.9538ZM104.338 27.7012H102.308V29.3786H104.307V29.8955H102.308L102.301 31.5524H104.338V32.0762H101.733V27.1774H104.338V27.7012ZM108.405 29.9024H106.177V32.083H105.601V27.1706H106.177V29.3855H108.405V27.1706H108.98V32.083H108.405V29.9024ZM113.324 29.9024H111.096V32.083H110.521V27.1706H111.096V29.3855H113.324V27.1706H113.899V32.083H113.324V29.9024ZM120.065 29.6422C120.065 31.0252 118.952 32.1788 117.586 32.1788C116.22 32.1788 115.108 31.0252 115.108 29.6422C115.108 28.2592 116.22 27.0919 117.586 27.0919C118.952 27.0919 120.065 28.266 120.065 29.6422ZM117.586 31.6482C118.538 31.6482 119.49 30.9636 119.49 29.6422C119.49 28.3208 118.531 27.6156 117.579 27.6225C116.628 27.6293 115.683 28.3414 115.683 29.6422C115.683 30.943 116.635 31.6482 117.586 31.6482ZM123.861 27.6978H121.831V29.3752H123.83V29.8921H121.831L121.824 31.549H123.861V32.0727H121.256V27.174H123.861V27.6978ZM127.62 32.0796H127.052V27.1672H128.51C129.602 27.1672 130.15 27.9648 130.15 28.7453C130.15 29.5258 129.602 30.2892 128.517 30.2892H127.62V32.0796ZM129.578 28.7453C129.578 28.2489 129.215 27.6978 128.507 27.6978H127.617V29.7586H128.507C129.222 29.7586 129.578 29.2348 129.578 28.7453ZM132.163 27.1535H132.864L134.627 32.0796H134.021L133.46 30.5151H131.577L131.03 32.0796H130.417L132.159 27.1535H132.163ZM133.275 29.9845L132.519 27.7628L131.755 29.9845H133.275ZM135.459 30.9362C135.791 31.4942 136.168 31.6414 136.64 31.6414C137.215 31.6414 137.66 31.3059 137.66 30.635C137.66 30.1386 137.222 29.7209 136.736 29.7141H136.014V29.2725H136.736C137.133 29.2725 137.547 28.9096 137.547 28.4543C137.5 27.3794 136.028 27.3486 135.589 28.1599L135.213 27.9169C135.576 27.3657 136.048 27.1261 136.623 27.1261C137.345 27.1261 138.095 27.5677 138.095 28.4543C138.095 28.8309 137.886 29.3273 137.4 29.495C137.955 29.6491 138.212 30.1317 138.212 30.6418C138.212 31.5866 137.489 32.1583 136.627 32.1515C136 32.1446 135.398 31.8844 135.042 31.2066L135.452 30.9328L135.459 30.9362ZM141.803 29.4471C142.357 29.7209 142.593 30.2002 142.587 30.676C142.587 31.6551 141.83 32.0796 140.926 32.0796H139.475V27.1603H140.933C141.71 27.1603 142.364 27.6499 142.364 28.4543C142.364 28.824 142.176 29.1869 141.803 29.4471ZM140.933 29.2177C142.135 29.2177 142.141 27.6807 140.933 27.6807H140.043V29.2177H140.933ZM140.043 29.7552V31.5524H140.933C142.419 31.5524 142.405 29.7552 140.933 29.7552H140.043ZM143.761 27.1911H144.329V31.4531L146.941 27.1911H147.629V32.083H147.061V27.9888L144.565 32.083H143.761V27.1911ZM151.453 27.1774V27.7354H150.244V32.083H149.669V27.7354H148.461V27.1774H151.456H151.453ZM152.281 27.1911H152.849V31.4531L155.461 27.1911H156.15V32.083H155.581V27.9888L153.086 32.083H152.281V27.1911ZM160.189 27.7012H158.159V29.3786H160.158V29.8955H158.159L158.152 31.5524H160.189V32.0762H157.584V27.1774H160.189V27.7012ZM165.742 27.1774V27.7354H164.533V32.083H163.958V27.7354H162.75V27.1774H165.745H165.742ZM169.237 27.7012H167.207V29.3786H169.206V29.8955H167.207L167.2 31.5524H169.237V32.0762H166.632V27.1774H169.237V27.7012ZM171.065 32.083H170.496V27.1706H171.955C173.047 27.1706 173.595 27.9682 173.595 28.7487C173.595 29.5292 173.047 30.2926 171.962 30.2926H171.065V32.083ZM173.023 28.7487C173.023 28.2524 172.66 27.7012 171.951 27.7012H171.061V29.762H171.951C172.667 29.762 173.023 29.2383 173.023 28.7487ZM175.262 32.083H174.693V27.1706H176.152C177.244 27.1706 177.791 27.9682 177.791 28.7487C177.791 29.5292 177.244 30.2926 176.159 30.2926H175.262V32.083ZM177.22 28.7487C177.22 28.2524 176.857 27.7012 176.148 27.7012H175.258V29.762H176.148C176.864 29.762 177.22 29.2383 177.22 28.7487ZM178.798 27.1911H179.366V31.4531L181.978 27.1911H182.666V32.083H182.098V27.9888L179.602 32.083H178.798V27.1911ZM186.49 27.1774V27.7354H185.282V32.083H184.706V27.7354H183.498V27.1774H186.493H186.49ZM191.895 29.6456C191.895 31.0286 190.783 32.1823 189.413 32.1823C188.044 32.1823 186.932 31.0286 186.932 29.6456C186.932 28.2626 188.044 27.0953 189.413 27.0953C190.783 27.0953 191.895 28.2695 191.895 29.6456ZM189.413 31.6517C190.365 31.6517 191.317 30.967 191.317 29.6456C191.317 28.3242 190.358 27.619 189.407 27.6259C188.455 27.6327 187.51 28.3448 187.51 29.6456C187.51 30.9465 188.462 31.6517 189.413 31.6517ZM193.682 32.0864H193.114V27.174H194.572C195.664 27.174 196.212 27.9716 196.212 28.7522C196.212 29.5327 195.664 30.296 194.579 30.296H193.682V32.0864ZM195.64 28.7522C195.64 28.2558 195.278 27.7046 194.569 27.7046H193.679V29.7654H194.569C195.284 29.7654 195.64 29.2417 195.64 28.7522ZM197.219 27.1946H197.787V31.4565L200.399 27.1946H201.087V32.0864H200.519V27.9922L198.023 32.0864H197.219V27.1946ZM202.46 27.1946H203.028V31.4565L205.64 27.1946H206.328V32.0864H205.76V27.9922L203.264 32.0864H202.46V27.1946ZM203.538 26.106H203.962C203.962 26.3867 204.212 26.5031 204.414 26.5031C204.616 26.5031 204.852 26.3901 204.852 26.106H205.297C205.297 26.6229 204.873 26.8967 204.414 26.8967C203.956 26.8967 203.538 26.6229 203.538 26.106Z" fill="white"/>
<path d="M61.5128 22.7535H59.3253V15.8419L52.3418 23.2875V11.6073H54.5224V18.5052L61.5128 11.0732V22.7535Z" fill="white"/>
<path d="M73.5327 22.7374H71.3452V17.7258H66.604V22.7374H64.4199V11.6221H66.604V15.8567H71.3452V11.6221H73.5327V22.7374Z" fill="white"/>
<path d="M84.5994 22.3912C83.6889 22.8465 82.6379 23.0725 81.4398 23.0725C79.7042 23.0725 78.2869 22.4974 77.1812 21.354C76.1097 20.238 75.5723 18.8447 75.5723 17.1776C75.5723 15.5105 76.1063 14.2028 77.1812 13.0697C78.3075 11.8852 79.7384 11.2896 81.4671 11.2896C82.6756 11.2896 83.7231 11.5121 84.596 11.9571V14.3363C83.5725 13.6379 82.5318 13.2887 81.4671 13.2887C80.4812 13.2887 79.6357 13.6619 78.9305 14.4013C78.2082 15.1579 77.8487 16.0821 77.8487 17.1742C77.8487 18.2662 78.1808 19.2521 78.8483 19.9778C79.5159 20.7036 80.382 21.0664 81.4535 21.0664C82.4565 21.0664 83.504 20.7104 84.596 19.9984V22.3844L84.5994 22.3912Z" fill="white"/>
<path d="M93.901 13.5357H91.1727V22.7374H88.9852V13.5357H86.25V11.6221H93.901V13.5357Z" fill="white"/>
<path d="M104.79 22.7535H102.606V15.8419L95.6191 23.2875V11.6073H97.7998V18.5052L104.79 11.0732V22.7535Z" fill="white"/>
<path d="M113.811 13.5357H111.082V22.7374H108.891V13.5357H106.156V11.6221H113.811V13.5357Z" fill="white"/>
<path d="M125.151 11.6221L120.116 22.7374H117.918L119.362 19.547L115.189 11.6221H117.51L120.417 17.2397L122.953 11.6221H125.151Z" fill="white"/>
<path d="M134.051 13.5357H131.323V22.7374H129.136V13.5357H126.4V11.6221H134.051V13.5357Z" fill="white"/>
<path d="M147.435 13.5362H143.954V22.7414H141.77V11.626H147.435V13.5362Z" fill="white"/>
<path d="M160.336 17.055C160.336 18.7393 159.771 20.1428 158.635 21.2657C157.498 22.3885 156.095 22.9499 154.424 22.9499C152.754 22.9499 151.35 22.3885 150.217 21.2657C149.084 20.1428 148.516 18.7393 148.516 17.055C148.516 15.3708 149.084 13.9672 150.217 12.8478C151.354 11.7284 152.754 11.167 154.424 11.167C156.095 11.167 157.498 11.725 158.635 12.8478C159.768 13.9672 160.336 15.3708 160.336 17.055ZM158.008 17.055C158.008 15.8843 157.68 14.9429 157.022 14.2308C156.365 13.5222 155.499 13.1662 154.428 13.1662C153.356 13.1662 152.49 13.5222 151.833 14.2308C151.176 14.9394 150.847 15.8808 150.847 17.055C150.847 18.2292 151.176 19.1501 151.836 19.869C152.497 20.5878 153.363 20.9473 154.428 20.9473C155.492 20.9473 156.358 20.5878 157.019 19.869C157.68 19.1501 158.008 18.2121 158.008 17.055Z" fill="white"/>
<path d="M169.659 14.9461C169.659 15.9149 169.364 16.6954 168.776 17.2807C168.108 17.9449 167.136 18.2735 165.862 18.2735H164.51V22.7374H162.34V11.6221H165.801C167.064 11.6221 168.029 11.9233 168.7 12.5258C169.337 13.1043 169.655 13.9088 169.655 14.9426M167.437 14.9426C167.437 14.4497 167.324 14.0868 167.095 13.8609C166.824 13.5836 166.355 13.4467 165.695 13.4467H164.507V16.4352H165.65C166.352 16.4352 166.831 16.3154 167.088 16.0792C167.321 15.8669 167.437 15.4904 167.437 14.9461" fill="white"/>
<path d="M182.786 17.055C182.786 18.7393 182.218 20.1428 181.085 21.2657C179.951 22.3885 178.548 22.9499 176.877 22.9499C175.207 22.9499 173.803 22.3885 172.67 21.2657C171.537 20.1428 170.969 18.7393 170.969 17.055C170.969 15.3708 171.537 13.9672 172.67 12.8478C173.807 11.7284 175.207 11.167 176.877 11.167C178.548 11.167 179.951 11.725 181.085 12.8478C182.218 13.9672 182.786 15.3708 182.786 17.055ZM180.458 17.055C180.458 15.8843 180.129 14.9429 179.472 14.2308C178.815 13.5222 177.949 13.1662 176.877 13.1662C175.806 13.1662 174.94 13.5222 174.282 14.2308C173.625 14.9394 173.297 15.8808 173.297 17.055C173.297 18.2292 173.629 19.1501 174.286 19.869C174.947 20.5878 175.809 20.9473 176.877 20.9473C177.945 20.9473 178.808 20.5878 179.469 19.869C180.129 19.1501 180.458 18.2121 180.458 17.055Z" fill="white"/>
<path d="M183.645 22.7409L183.604 20.8034C184.227 20.8034 184.644 20.6664 184.863 20.396C185.106 20.0982 185.226 19.506 185.226 18.6159V11.5708H193.004V20.8034H194.14L194.123 22.7273L183.645 22.7409ZM190.803 20.8034V13.4399H187.369V18.8316C187.369 19.5265 187.225 20.1838 186.945 20.8034H190.803Z" fill="white"/>
<path d="M206.232 22.7407H203.956L202.87 20.2794H198.489L197.39 22.7407H195.113L200.666 11.0776L206.229 22.7407H206.232ZM202.086 18.5061L200.673 15.3157L199.279 18.5061H202.086Z" fill="white"/>
<path d="M32.9698 10.9513L32.5966 10.5815L21.9639 21.2382L0.5 21.2553V21.7825L21.738 21.7654L21.7414 43H22.2686L22.2652 21.6832L32.9698 10.9513Z" fill="white"/>
<path d="M43.5067 20.5568H22.95L22.9534 0H21.0569L21.0535 21.1113L10.4961 31.6961L11.838 33.038L22.3954 22.4533H43.5067V20.5568Z" fill="white"/>
</svg>
