<svg id="Слой_1" data-name="Слой 1" xmlns="http://www.w3.org/2000/svg" xmlns:xlink="http://www.w3.org/1999/xlink" viewBox="0 0 212.88 212.88"><defs><style>.cls-1,.cls-2{fill:none;}.cls-2{clip-rule:evenodd;}.cls-3{clip-path:url(#clip-path);}.cls-4{fill:#00405b;}.cls-5{clip-path:url(#clip-path-2);}.cls-6{clip-path:url(#clip-path-3);}</style><clipPath id="clip-path" transform="translate(2 2)"><rect class="cls-1" width="208.88" height="208.88"/></clipPath><clipPath id="clip-path-2" transform="translate(2 2)"><path class="cls-2" d="M102.39,39.46c3,.94,6,1.74,8.92,2.85a42.87,42.87,0,0,1,10.74,6,12.74,12.74,0,0,1,5.41,11.53c-.22,3.33-.62,6.64-.89,10a1.53,1.53,0,0,0,.34,1.2,3.62,3.62,0,0,1,1.31,3.5,18.82,18.82,0,0,1-2.4,8.2,7.78,7.78,0,0,0-.81,2c-1.78,6.76-4.79,12.82-10.14,17.52-3.36,2.95-7.23,4.78-11.84,4.25-4.19-.48-7.56-2.64-10.5-5.53a34.49,34.49,0,0,1-9-16,11.46,11.46,0,0,0-1-2.44,17.43,17.43,0,0,1-2.26-8.72,4.79,4.79,0,0,1,1.11-2.54,2.17,2.17,0,0,0,.51-1.81c-.35-2.94-.69-5.87-.91-8.82-.43-5.85,2-10.52,6.25-14.34a32.43,32.43,0,0,1,9.67-6,26.2,26.2,0,0,1,2.65-.81Z"/></clipPath><clipPath id="clip-path-3" transform="translate(2 2)"><path class="cls-2" d="M89.81,103.83c9.84,9.08,18.82,9.59,29.23,0,1.07.79,2.12,1.62,3.23,2.37a67.27,67.27,0,0,0,16.68,8c8.87,3,13.88,9.34,16.2,18,2.5,9.41,2,18.84-.07,28.25a2.49,2.49,0,0,1-1.74,1.93c-7.47,3-15.29,4.41-23.21,5.43a202.32,202.32,0,0,1-31.51,1.48c-11.39-.32-22.71-1.26-33.81-4A100.33,100.33,0,0,1,55,162.18a2.54,2.54,0,0,1-1.22-1.71A93.2,93.2,0,0,1,52.29,151a53.15,53.15,0,0,1,1.41-18.75c2.39-8.7,7.32-15.11,16.21-18a66.49,66.49,0,0,0,16.57-7.93C87.6,105.5,88.67,104.66,89.81,103.83Z"/></clipPath></defs><g class="cls-3"><path class="cls-4" d="M2,208.88V0H-2V208.88Zm206.88-2H0v4H208.88ZM206.88,0V208.88h4V0ZM0,2H208.88V-2H0ZM0,208.88H-2v2H0Zm208.88,0v2h2v-2ZM208.88,0h2V-2h-2ZM0,0V-2H-2V0Z" transform="translate(2 2)"/></g><g class="cls-5"><path class="cls-4" d="M99.6,41.46h2.79v-4H99.58Zm-1.91.66c.74-.3,1.38-.42,2.47-.74L99,37.54a29.7,29.7,0,0,0-2.84.88ZM88.6,47.76a30.61,30.61,0,0,1,9.09-5.64l-1.5-3.71a34.57,34.57,0,0,0-10.26,6.38ZM83,60.47c-.37-5.1,1.69-9.2,5.59-12.71l-2.67-3c-4.62,4.15-7.39,9.39-6.91,16Zm.91,8.73c-.35-2.94-.69-5.83-.91-8.73l-4,.3c.23,3,.58,6,.93,8.91ZM83,72.48a4.12,4.12,0,0,0,.92-3.28l-4,.47c0,.2,0,.22,0,.18s0,0-.11.17Zm-.69,1.34a3.11,3.11,0,0,1,.7-1.35L79.84,70a6.73,6.73,0,0,0-1.53,3.73Zm2,7.74a15.53,15.53,0,0,1-2-7.73l-4-.09a19.32,19.32,0,0,0,2.51,9.72Zm1.16,2.87a13.07,13.07,0,0,0-1.16-2.87l-3.51,1.9a9.84,9.84,0,0,1,.81,2Zm8.45,15a32.46,32.46,0,0,1-8.45-15.06l-3.86,1.06a36.53,36.53,0,0,0,9.5,16.85Zm9.31,5c-3.58-.41-6.56-2.26-9.31-5l-2.81,2.85c3.12,3.06,6.88,5.54,11.67,6.09Zm10.3-3.76c-3.09,2.71-6.42,4.21-10.3,3.76l-.45,4c5.35.61,9.76-1.54,13.39-4.74Zm9.53-16.53c-1.72,6.51-4.57,12.17-9.53,16.53l2.64,3c5.73-5,8.91-11.5,10.76-18.51Zm1-2.48a10.11,10.11,0,0,0-1,2.48l3.87,1a6,6,0,0,1,.59-1.47Zm2.14-7.33a16.92,16.92,0,0,1-2.14,7.34l3.45,2a20.92,20.92,0,0,0,2.68-9.06Zm-.51-1.75a1,1,0,0,1,.43.58,3.16,3.16,0,0,1,.08,1.17l4,.29a5.6,5.6,0,0,0-2.12-5.26Zm-1.15-3a4.57,4.57,0,0,0,.11,1.32,2.93,2.93,0,0,0,1,1.64l2.39-3.2a1.3,1.3,0,0,1,.41.46.34.34,0,0,1,0,.1.08.08,0,0,1,0,0v0h0Zm.89-9.94c-.22,3.34-.6,6.49-.89,9.94l4,.33c.26-3.2.67-6.68.89-10Zm-4.63-9.81a10.77,10.77,0,0,1,4.63,9.82l4,.26a14.71,14.71,0,0,0-6.19-13.25ZM110.6,44.18a41,41,0,0,1,10.23,5.69l2.43-3.17A44.73,44.73,0,0,0,112,40.44Zm-8.81-2.82c3.11,1,6,1.73,8.81,2.82L112,40.44c-3-1.14-6.18-2-9-2.89Zm-2.2-1.9v-2H99.3l-.28.08Zm-2.65.81.75,1.85h0Zm-9.67,6,1.33,1.48h0ZM81,60.62l-2,.15h0Zm.91,8.82,2-.24h0Zm-.51,1.81L79.85,70h0Zm-1.11,2.54,2,0h0Zm2.26,8.72,1.76-1h0Zm1,2.44-1.93.52h0Zm9,16-1.4,1.43h0Zm10.5,5.53-.23,2h0Zm11.84-4.25,1.32,1.5h0ZM125,84.66l1.94.51h0Zm.81-2,1.72,1h0Zm2.4-8.2-2-.14h0ZM126.91,71l-1.2,1.6h0Zm-.34-1.2,2,.17h0Zm.89-10,2,.13h0Zm-5.41-11.53-1.22,1.58h0Zm-10.74-6,.72-1.87h0Zm-8.92-2.85.6-1.91-.29-.09h-.31Z" transform="translate(2 2)"/></g><g class="cls-6"><path class="cls-4" d="M87.59,107.91c1.17-.78,2.33-1.68,3.41-2.47l-2.37-3.23c-1.21.89-2.19,1.66-3.27,2.38Zm-17,8.17a68.81,68.81,0,0,0,17.06-8.17l-2.24-3.31a64.67,64.67,0,0,1-16.08,7.68ZM55.63,132.76c2.25-8.2,6.78-14,14.91-16.68l-1.26-3.79c-9.65,3.19-15,10.2-17.51,19.41Zm-1.35,18.05a51.1,51.1,0,0,1,1.35-18.05l-3.86-1.06a55.46,55.46,0,0,0-1.48,19.45Zm1.49,9.29a91.28,91.28,0,0,1-1.49-9.29l-4,.34a95.3,95.3,0,0,0,1.55,9.7Zm-.06.2a.61.61,0,0,1,.2.1l.06,0a.3.3,0,0,1-.07-.08,1.74,1.74,0,0,1-.1-.19.16.16,0,0,0,0-.06h0l-3.93.74a4.73,4.73,0,0,0,.77,1.79,3.77,3.77,0,0,0,1.75,1.43Zm9.58,3.1a97.68,97.68,0,0,1-9.58-3.1l-1.35,3.76a100.39,100.39,0,0,0,10,3.22Zm33.38,3.94c-11.32-.32-22.48-1.25-33.38-3.94l-1,3.88c11.28,2.79,22.77,3.74,34.22,4.06Zm31.21-1.46a200.81,200.81,0,0,1-31.21,1.46l-.11,4a205.37,205.37,0,0,0,31.83-1.49Zm22.73-5.3c-7.24,2.87-14.87,4.29-22.73,5.3l.51,4c8-1,16-2.5,23.69-5.56Zm.52-.52a1,1,0,0,1-.11.29,1.5,1.5,0,0,1-.41.23l1.47,3.71A5,5,0,0,0,156,163a4.52,4.52,0,0,0,1-2.1Zm.09-27.29c2.39,9,2,18.1-.09,27.29l3.9.87c2.16-9.62,2.65-19.39.05-29.19Zm-14.9-16.68c8.12,2.71,12.72,8.49,14.9,16.68l3.86-1c-2.45-9.25-7.88-16.24-17.5-19.44Zm-17.17-8.23a69.41,69.41,0,0,0,17.17,8.24l1.26-3.8a65.62,65.62,0,0,1-16.19-7.75Zm-3.3-2.42c1,.74,2.14,1.64,3.3,2.42l2.24-3.31c-1.07-.73-2-1.48-3.17-2.33Zm-29.39-.14c5.1,4.7,10.26,7.45,15.73,7.53s10.8-2.55,16.2-7.53l-2.71-2.94c-5,4.61-9.37,6.52-13.44,6.47s-8.33-2.1-13.07-6.47Zm-2,1-1.12-1.66h0Zm-16.57,7.93-.63-1.9h0Zm-16.21,18-1.93-.53h0ZM52.29,151l2-.17h0Zm1.52,9.49,2-.37h0ZM55,162.18l-.67,1.88h0Zm9.78,3.16.48-1.94h0Zm33.81,4,0-2h0Zm31.51-1.48-.25-2h0Zm23.21-5.43-.73-1.85h0Zm1.74-1.93-2-.44h0Zm.07-28.25,1.93-.51h0Zm-16.2-18,.63-1.9h0Zm-16.68-8-1.12,1.66h0ZM119,103.83l1.18-1.61-1.33-1-1.21,1.12Zm-29.23,0,1.36-1.47L90,101.24l-1.33,1Z" transform="translate(2 2)"/></g></svg>