<svg width="144" height="77" viewBox="0 0 144 77" fill="none" xmlns="http://www.w3.org/2000/svg">
<path fill-rule="evenodd" clip-rule="evenodd" d="M138.918 0H137.379V15.8324L137.316 15.893L119.248 15.9086V0H118.728V15.9109L109.433 24.8793V6.7542H109.436L116.199 0H114.023L108.644 5.37118H90.6522L96.0301 0H95.2937L89.9164 5.37118H89.8692L89.8723 0H88.3234V5.88449L70.3342 5.90018V0H69.7859L69.7695 6.20279L69.7717 6.20502L61.136 15.0748V0H59.5907L59.5632 16.0297L40.5548 16.0252V0H40.0328V15.9288L40.0238 15.9176L31.0528 24.877V6.91112L37.9746 0H35.7921L29.5025 6.28124L29.5093 6.28797L29.5205 25.758L10.4738 25.7759V26.2915L28.8747 26.2758L19.5955 35.5423L19.6158 35.5625L19.8993 55.0795L0.548828 55.084V55.5996L18.9993 55.5839L9.8258 64.7473L10.9171 65.8322L20.0883 56.671V75.0471H20.6081L20.5991 56.0479L40.6875 56.0255L50.0027 46.5662L50.014 65.4556H50.5315V46.5079H70.0755V44.959H51.409L60.6613 35.7261L60.6927 16.8098L60.659 16.7761H80.1602L89.2482 7.59478L89.2707 26.2959L107.305 26.2825L98.1291 35.4436L98.1651 55.1311L79.2917 55.1468V55.6623L97.7421 55.6466L88.5687 64.8101L89.6599 65.895L98.8312 56.7338L98.8357 75.1099H99.3532L99.3397 55.956L118.737 55.8932V54.3555H100.276L108.896 45.7234L108.909 26.8496L128.572 26.8003L137.879 17.4979L137.89 36.2327L144 36.2274V35.7145L138.41 35.7194L138.405 16.9846L138.468 16.9218H144V15.3864L139.285 15.3819L144 10.7852V10.0622L138.918 15.012V0ZM127.767 65.3861L144 65.3727V65.8901L127.767 65.9039V65.3861ZM137.044 75.0494L144 68.1042V70.2787L138.135 76.1343L137.044 75.0494ZM49.4695 45.284L30.542 45.2504V26.798L30.5488 26.7891H49.501L49.4695 45.284ZM30.02 27.3136V45.2504L21.1593 54.1538V36.1609L30.02 27.3136ZM30.2945 45.7659L48.7427 45.7503L39.99 54.49H21.5576L30.2945 45.7659ZM50.0658 25.2514H31.4106L40.1565 16.5296H58.8027L50.0658 25.2514ZM70.332 6.43815L88.2694 6.40005L79.4177 15.2384L61.802 15.2339L70.332 6.43815ZM60.0177 35.6364L60.047 35.6656V17.462L51.0535 26.4416V44.5914L60.0177 35.6364ZM89.7769 25.7781L89.7724 7.07699L89.9389 6.91112H107.89V25.7042L107.827 25.7647L89.7747 25.7804L89.7769 25.7781ZM108.403 45.5171L99.7132 54.1941V36.0399L108.398 27.3696L108.403 45.5171ZM127.945 25.2536H109.791L118.947 16.4444L136.799 16.413L127.947 25.2536H127.945Z" fill="#D9D9D9"/>
</svg>
