<svg width="666" height="315" viewBox="0 0 666 315" fill="none" xmlns="http://www.w3.org/2000/svg">
<path d="M668.224 43.8408L586.051 43.7492L627.86 2.84586V0.912109H625.509V1.88917L584.422 42.0699V0.912109H577.451V45.7949L577.166 46.0696L495.451 46.1409V0.912109H493.089V46.1409L451.046 86.8611V4.57601L454.71 0.912109H271.647V2.07236L232.576 42.3447V0.912109H225.554L225.472 46.6803L139.493 46.66V0.912109H137.132V46.2223L137.091 46.1816L96.5132 86.8611L96.5335 5.28845L100.9 0.912109H91.0275L89.5212 2.42858L89.5518 2.45911L89.6027 90.8608L3.46035 90.932V93.283L86.6817 93.2118L44.7097 135.286L44.8013 135.377L46.0837 223.993H0V226.333L42.0127 226.293L0.519052 267.888L5.46531 272.824L46.9488 231.219V314.664H49.2998L49.2591 228.389L140.124 228.288L182.259 185.338L182.309 271.104H184.65V185.074H273.052V178.041H188.619L230.48 136.11L230.622 50.2221L230.469 50.0694H318.667L359.774 8.38239L359.886 93.2932L441.449 93.222L399.945 134.828L400.108 224.206L314.749 224.278V226.629L398.194 226.557L356.701 268.163L361.647 273.089L403.13 231.493L403.151 314.929H405.492L405.441 227.962L493.171 227.687V220.705H409.664L448.654 181.512L448.716 95.8172L537.667 95.6035L579.751 53.3567L579.812 138.42L661.364 138.349L619.86 179.955L620.115 270.453L619.84 270.717L534.033 270.799V273.14L617.499 273.068L575.985 314.664L576.321 315H585.521L622.425 278.015V315H624.776V275.664L625.051 275.379H668.224V268.397H628.725L668.224 228.908V43.8408ZM51.7729 138.084L91.8519 97.9138V179.354L51.7729 219.779V138.084ZM136.959 221.306H53.554L93.0732 181.695L176.539 181.624L136.959 221.306ZM179.816 179.507L94.2131 179.344L94.1927 95.5628L94.2334 95.5221H179.969L179.816 179.507ZM182.533 88.5505H98.1416L137.712 48.9397H222.053L182.533 88.5505ZM227.548 135.693L186.991 176.352V93.9446L227.681 53.1735V135.845L227.548 135.693ZM315.289 43.0876H235.609L274.192 3.13083L355.327 2.9578L315.289 43.0876ZM362.136 90.9422V6.03139L362.879 5.26807H444.075V90.5962L443.79 90.871L362.136 90.9422ZM407.09 219.962V137.535L446.375 98.1682V180.565L407.09 219.962ZM534.787 88.5607H452.675L494.077 48.5631L574.825 48.4207L534.787 88.5607ZM582.122 136.069L582.102 51.0057L582.376 50.7309H663.98V135.733L663.705 136.008L582.122 136.069ZM627.086 266.718V182.58L666.29 143.295L666.565 227.209L627.086 266.718Z" fill="#C8C9CB"/>
</svg>
