<svg width="217" height="263" viewBox="0 0 217 263" fill="none" xmlns="http://www.w3.org/2000/svg">
<path fill-rule="evenodd" clip-rule="evenodd" d="M46.3587 263H51.7516L69.1227 245.659L69.127 263H70.372L70.3853 244.373L118.996 244.251L142.003 221.254L142.028 263H143.315L143.304 219.985L143.46 219.83H188.06V263H191.885L192.004 216.067L145.479 216.023L168.325 193.752L168.397 146.799L216.635 146.893V143.092H170.477L192.677 120.926L191.771 120.023L169.593 142.172L169.543 94.7037L122.801 94.7536L144.995 72.5822L144.089 71.6789L121.905 93.8337L121.894 46.8476L75.2247 46.8753L97.4247 24.7039L96.5181 23.8006L74.3347 45.9499V0H70.5244L70.5578 48.0944L23.4711 48.1775V49.4521L69.0893 49.4133L46.4053 72.0668L49.1031 74.7489L71.776 52.1064V97.5299L116.482 97.4634L93.3975 120.294L93.3419 168.25L46.5333 168.211H46.5277H46.5221H46.4776V168.256L23.4321 191.275H23.3153L23.3431 143.884H0.5V147.691H19.4939V192.544L0.5 192.56V193.858L19.3604 193.818L0.5 212.65V218.271L21.78 196.772L21.8357 243.004L66.4193 242.971L46.3587 263ZM192.951 263H194.762L214.966 242.822L214.06 241.918L192.951 263ZM71.687 194.694L94.6602 171.752V217.331L71.6814 239.502V194.694H71.687ZM143.11 167.164H98.4371L119.959 145.669L164.67 145.63L143.11 167.164ZM165.766 144.206L120.637 144.394L120.671 98.483L165.766 98.5495V144.206ZM119.369 100.301V144.444L97.2301 166.56V122.406L119.369 100.295V100.301ZM95.9451 217.325V170.965H140.768V217.137L140.612 217.287L95.9451 217.325ZM167.034 193.231L144.573 215.109V170.733L167.023 148.317V193.225L167.034 193.231ZM73.0776 96.2276L73.1054 50.6656L118.095 50.6823L117.939 96.2442L73.0721 96.2331L73.0776 96.2276ZM47.0617 169.491L91.5841 169.453L69.729 191.275H25.2511L47.0617 169.491ZM23.0872 241.724L23.0761 195.492L23.4877 195.082H67.8655V241.542L67.7098 241.691L23.0817 241.73L23.0872 241.724ZM117.444 240.428H72.5659L95.1997 218.65L139.333 218.572L117.45 240.428H117.444Z" fill="#D9D9D9"/>
</svg>
