<svg width="172" height="99" viewBox="0 0 172 99" fill="none" xmlns="http://www.w3.org/2000/svg">
<path fill-rule="evenodd" clip-rule="evenodd" d="M164.555 75.85L171.999 75.8645V73.9344H165.63L171.999 67.5753V66.642L165.173 73.4592L165.148 48.9327L140.996 48.9585L152.464 37.5026L151.996 37.0359L140.534 48.4832L140.528 24.2058L116.414 24.2201L127.885 12.7643L127.416 12.2976L115.954 23.7419V0H113.985L114.003 24.85L89.6734 24.893V25.5515L113.244 25.5315L101.523 37.2364L102.917 38.6222L114.632 26.923V50.3929L137.731 50.3586L125.804 62.1551L125.775 86.9335L101.589 86.9135H101.587H101.584H101.561V86.9364L89.6533 98.8303H89.5929L89.6073 74.3439H65.755L77.2227 62.891L76.7542 62.4242L65.2952 73.8715L65.3009 50.1267H63.3293L63.3235 74.782L39.0631 74.8049L39.0488 74.7906L39.0315 74.8049H38.9827V74.8535L27.2477 86.5699V62.8251H25.2789L25.2042 87.7009L0.966801 87.7152V88.3737L24.1379 88.3537L13.4774 99H16.2637L25.9342 89.3444V89.3472V99H26.601V89.0065H50.9217L50.9046 99H52.8905V88.1161L63.9788 77.0439L63.9208 99H64.6399V76.3882L64.7117 76.3109H87.6184V99H116.185L126.456 88.7431V99H127.12V88.3365H150.28V99H152.246V88.2163L163.846 76.6345V99H164.52L164.555 75.85ZM151.49 86.3723H128.408L139.528 75.2659L162.63 75.2458L151.49 86.3723ZM163.196 74.51L139.878 74.6073L139.896 50.8854L163.196 50.9198V74.51ZM139.223 51.8246V74.6331L127.784 86.0602V63.246L139.223 51.8217V51.8246ZM115.305 49.7201L115.319 26.1786L138.565 26.1871L138.484 49.7287L115.302 49.7229L115.305 49.7201ZM101.862 87.5749L124.867 87.5549L113.574 98.8303H90.5931L101.862 87.5749ZM51.1833 87.0423H27.7133L39.3103 75.4634L62.8004 75.4405L51.1833 87.0423Z" fill="#6B859E" fill-opacity="0.4"/>
</svg>
