<svg width="618" height="354" viewBox="0 0 618 354" fill="none" xmlns="http://www.w3.org/2000/svg">
<path opacity="0.1" d="M620.223 222.979L582.169 261.114L582.078 173.933L496.566 174.025L537.174 133.305L535.516 131.646L494.928 172.335L494.907 86.0405L409.528 86.0914L450.137 45.3713L448.478 43.7225L407.9 84.4019V0H400.928L400.99 88.3305L314.837 88.4831V90.8239L398.313 90.7527L356.799 132.358L361.745 137.294L403.229 95.699V179.134L485.025 179.002L442.789 220.933L442.687 309.009L357.043 308.938H357.023H357.013H356.931V309.019L314.766 351.286H314.552L314.603 264.248H230.15L270.758 223.538L269.089 221.88L228.512 262.569L228.532 178.167H221.55L221.53 265.806L135.632 265.887L135.571 265.826L135.52 265.887H135.347V266.06L93.8023 307.706V223.304H86.8205L86.5661 311.726L0.739258 311.777V314.128L82.7902 314.057L43.8918 353.047L43.0267 353.912H52.8989L53.764 353.047L89.1308 317.578V353.912H91.4818V316.367H177.614L177.553 353.047V353.912H184.585V313.212L223.85 273.856L223.647 353.047V353.912H406.709L407.574 353.047L445.089 315.431V353.912H447.44V313.996H529.45V353.912H536.432V313.579L577.498 272.411V353.047L577.508 353.912H579.859V353.047L579.981 269.612L620.223 269.683V262.803H583.787L620.223 226.297V222.979ZM178.54 309.386H95.4306L136.497 268.228L219.678 268.157L178.54 309.386ZM307.57 353.047V353.607L226.211 353.678V353.047L226.191 271.505L226.466 271.23H307.58V353.047H307.57ZM399.453 351.286H318.073L357.979 311.279L439.43 311.207L399.453 351.286ZM405.58 176.722L405.63 93.0426L487.946 93.0732L487.661 176.742L405.58 176.722ZM449.791 224.821L490.287 184.213V265.287L449.78 305.905V224.821H449.791ZM533.724 307.014H451.999L491.376 267.536L573.182 267.465L533.724 307.014ZM575.188 264.849L492.617 265.195L492.679 180.874L575.198 180.997V264.849H575.188Z" fill="white"/>
</svg>
