<svg width="110" height="111" viewBox="0 0 110 111" fill="none" xmlns="http://www.w3.org/2000/svg">
<path fill-rule="evenodd" clip-rule="evenodd" d="M110.001 87.6925V91.2367H92.7891L92.8668 91.3141L92.834 111H91.3812V92.8147L73.1678 111H21.152L21.1266 67.1079L21.1111 67.0924L42.1015 46.1298L0.369138 46.1659V44.9799L44.022 44.9541L44.1566 0.151437H47.7024V42.9171L68.8378 21.8153V21.7277H68.9258L68.9569 21.7019L68.9827 21.7277L110.001 21.6889V22.8742L69.4279 22.9137L48.541 43.768H90.8117L110.001 24.6043V29.6111L93.8865 45.7018V87.3227L110.001 70.7717V72.6525L95.4188 87.6888L110.001 87.6925ZM46.5377 47.3056H90.3407L90.2682 89.5195L46.5377 89.5092V47.3056ZM45.3368 47.9193V89.2875L45.3161 89.2617L24.6777 109.874V68.5415L45.3368 47.9141V47.9193ZM68.4185 110.735H25.5007L45.6215 90.6695H88.5186L68.4185 110.735Z" fill="#D9D9D9"/>
</svg>
