<svg width="106" height="131" viewBox="0 0 106 131" fill="none" xmlns="http://www.w3.org/2000/svg">
<path d="M70.0109 10.2653L70.0105 10.265C66.7997 7.80608 63.2858 5.87284 59.5245 4.43029L70.0109 10.2653ZM70.0109 10.2653C73.5942 13.0063 75.3202 16.4985 75.0291 20.9368L70.0109 10.2653ZM74.8824 32.9684L74.8789 32.9658C74.4585 32.6518 74.2937 32.1648 74.2234 31.8841C74.1412 31.5562 74.1129 31.1974 74.139 30.8865C74.1391 30.8862 74.1391 30.886 74.1391 30.8857L74.8824 32.9684ZM74.8824 32.9684C75.6989 33.5729 75.8843 34.3806 75.7937 35.595L75.7937 35.5955M74.8824 32.9684L75.7937 35.5955M75.7937 35.5955C75.588 38.3738 74.9073 40.9771 73.5208 43.3638C73.1139 44.06 72.814 44.8303 72.6168 45.5894C70.8676 52.2238 67.9322 58.0854 62.7838 62.612C59.5552 65.4499 55.9552 67.107 51.7092 66.6219C47.823 66.1756 44.6474 64.168 41.804 61.3746C37.4286 57.071 34.7134 51.8089 33.0942 45.8741C32.8444 44.9523 32.4724 44.0499 32.0236 43.2207L32.0232 43.2199M75.7937 35.5955L32.0232 43.2199M32.0232 43.2199C30.6092 40.6134 29.8226 37.8763 29.8821 34.9924L29.8821 34.9911M32.0232 43.2199L29.8821 34.9911M29.8821 34.9911C29.8923 34.4635 30.2587 33.727 30.7846 33.0484C31.0715 32.6789 31.2969 32.2918 31.4216 31.8427C31.5465 31.3928 31.5507 30.9517 31.497 30.5037L31.497 30.5035M29.8821 34.9911L31.497 30.5035M31.497 30.5035C31.145 27.5683 30.8026 24.6524 30.5866 21.731L31.497 30.5035ZM36.5042 8.20525L36.5037 8.20565C32.4203 11.8733 30.1851 16.2578 30.5866 21.7305L36.5042 8.20525ZM36.5042 8.20525C39.2755 5.7131 42.4155 3.78427 45.8817 2.38054L45.8828 2.38013M36.5042 8.20525L45.8828 2.38013M45.8828 2.38013C46.4189 2.16233 46.9459 2.0194 47.5345 1.85979C47.7793 1.79342 48.0347 1.72416 48.3058 1.64543C49.1399 1.64274 49.9719 1.64259 50.8079 1.64258M45.8828 2.38013L50.8079 1.64258M50.8079 1.64258C51.7143 1.92748 52.612 2.19623 53.5018 2.46261C55.5477 3.07512 57.5519 3.67514 59.5244 4.43024L50.8079 1.64258Z" stroke="#00405B" stroke-width="2"/>
<path d="M70.2759 68.2168L70.2758 68.2168C69.4924 67.6863 68.7227 67.1066 67.9805 66.5475C67.8756 66.4685 67.7713 66.3899 67.6675 66.3119C62.5867 70.8254 57.7002 73.0803 52.7709 73.0135C47.8584 72.947 43.1201 70.577 38.3185 66.3037C38.2085 66.3857 38.0984 66.4679 37.9882 66.5502C37.2035 67.1361 36.413 67.7264 35.607 68.2681C30.3905 71.7986 24.7104 74.3615 18.7917 76.3188M70.2759 68.2168L3.23367 93.6808C5.55044 85.2283 10.2865 79.1332 18.7917 76.3188M70.2759 68.2168C75.5263 71.7712 81.2434 74.3509 87.2017 76.3315L70.2759 68.2168ZM18.7917 76.3188L18.4777 75.3694M18.7917 76.3188L18.4777 75.3694M18.4777 75.3694C9.591 78.31 4.65503 84.7118 2.26915 93.4168C0.583617 99.575 0.31554 105.857 0.855045 112.162L37.3675 65.7655C36.5916 66.3449 35.833 66.9114 35.0483 67.4388C29.9246 70.9067 24.3319 73.4335 18.4777 75.3694ZM102.753 93.6968C100.508 85.244 95.7007 79.161 87.2022 76.3317L102.753 93.6968ZM102.753 93.6968C105.197 102.903 104.763 112.162 102.673 121.462L102.673 121.463C102.592 121.827 102.472 122.046 102.329 122.203C102.182 122.367 101.95 122.53 101.545 122.691L101.544 122.691C94.1903 125.613 86.4626 127.042 78.5737 128.056C68.1697 129.394 57.7102 129.816 47.2166 129.523C35.8627 129.207 24.6166 128.266 13.6239 125.553L13.6234 125.553C10.5038 124.785 7.45326 123.688 4.36031 122.576C4.22295 122.527 4.08551 122.478 3.94797 122.428C3.94476 122.426 3.91617 122.411 3.86577 122.365C3.80137 122.307 3.72582 122.221 3.64962 122.11C3.48946 121.878 3.38848 121.629 3.35912 121.473L3.35874 121.471C3.29065 121.113 3.22215 120.756 3.15381 120.401C2.61552 117.598 2.08743 114.848 1.85144 112.077L1.8514 112.077C1.31902 105.855 1.58717 99.6966 3.23358 93.6811L102.753 93.6968Z" stroke="#00405B" stroke-width="2"/>
</svg>
